<svg width="43" height="56" viewBox="0 0 43 56" fill="none" xmlns="http://www.w3.org/2000/svg">
<path d="M13.832 55.166C17.5754 54.4689 20.5636 52.5295 22.7032 49.4061C24.9487 46.1279 25.5907 41.5998 24.4556 37.6344L41.58 12.6349C42.7484 10.9253 43.1911 8.82091 42.8108 6.78389C42.4306 4.74688 41.2584 2.9439 39.5519 1.77103C36.1156 -0.59431 31.0621 0.346713 28.7075 3.79038L10.9433 29.724C6.31871 31.0156 2.28308 35.2103 3.38221 41.1129C3.52109 41.8587 3.70333 42.5506 3.87962 43.2105C4.54881 45.7116 4.79747 46.6509 1.27605 49.3186C0.930283 49.5813 0.658739 49.9295 0.488084 50.3291C0.317429 50.7287 0.253531 51.166 0.302664 51.5979C0.351798 52.0298 0.512275 52.4416 0.768334 52.7927C1.02439 53.1439 1.36723 53.4223 1.76317 53.6008C2.01188 53.7073 7.83955 56.2818 13.832 55.166C13.8295 55.1664 13.8295 55.1664 13.832 55.166ZM32.8307 6.62122C33.2613 6.01972 33.9079 5.60866 34.6348 5.47424C35.3618 5.33983 36.1126 5.4925 36.7299 5.90024C37.0332 6.10863 37.2926 6.37479 37.4932 6.68351C37.6939 6.99224 37.8319 7.33749 37.8993 7.69954C37.9667 8.0616 37.9622 8.43337 37.8862 8.79362C37.8101 9.15388 37.6639 9.49556 37.4559 9.79917L22.1151 32.1948L17.4899 29.0169L32.8307 6.62122ZM8.71214 41.9159C8.56523 41.3727 8.41127 40.8055 8.2976 40.195C7.58945 36.3921 10.9542 34.7265 12.8345 34.3763C13.7095 34.2134 14.586 34.2361 15.2983 34.4422C17.8388 35.1788 18.988 37.0481 19.5028 38.488C20.4374 41.0899 20.0548 44.416 18.5771 46.5732C17.1954 48.5903 15.3437 49.7909 12.9153 50.2431C11.0718 50.5863 9.18771 50.438 7.61937 50.1418C9.83287 47.2515 9.46304 44.7329 8.71214 41.9159Z" fill="#9747FF"/>
</svg>
