<svg width="37" height="54" viewBox="0 0 37 54" fill="none" xmlns="http://www.w3.org/2000/svg">
<g clip-path="url(#clip0_274_140)">
<path d="M23.452 46.3846C23.3759 45.5286 22.9857 44.8247 22.2813 44.273C21.5769 43.7212 20.7682 43.4859 19.8551 43.567C18.942 43.6482 18.1875 44.0225 17.5915 44.6898C16.9954 45.3572 16.7355 46.1189 16.8115 46.9749C16.8876 47.8309 17.2779 48.5348 17.9823 49.0866C18.6867 49.6383 19.4954 49.8736 20.4085 49.7925C21.3215 49.7113 22.0761 49.3371 22.6721 48.6697C23.2681 48.0023 23.5281 47.2406 23.452 46.3846ZM31.5313 39.3919L29.0965 11.9999C29.0666 11.6626 28.9092 11.3825 28.6244 11.1594C28.3397 10.9364 28.0175 10.8408 27.6578 10.8728L6.40821 12.7616C6.04852 12.7936 5.7482 12.9445 5.50725 13.2142C5.2663 13.484 5.16081 13.7875 5.19078 14.1247L7.62556 41.5167C7.65553 41.854 7.81289 42.1341 8.09765 42.3572C8.38241 42.5802 8.70463 42.6758 9.06432 42.6438L30.3139 40.755C30.6736 40.723 30.9739 40.5721 31.2148 40.3024C31.4558 40.0326 31.5613 39.7291 31.5313 39.3919ZM20.6299 7.10524C20.593 6.69021 20.3532 6.50237 19.9105 6.54172L13.2701 7.13196C12.8274 7.17131 12.6245 7.39851 12.6613 7.81354C12.6982 8.22857 12.938 8.41641 13.3807 8.37706L20.0212 7.78681C20.4639 7.74746 20.6668 7.52027 20.6299 7.10524ZM32.5275 5.42025L36.069 45.2632C36.1888 46.612 35.7669 47.826 34.8031 48.9052C33.8393 49.9843 32.638 50.5878 31.1993 50.7157L9.9497 52.6045C8.51092 52.7324 7.22203 52.3502 6.083 51.458C4.94398 50.5657 4.31452 49.4452 4.19462 48.0964L0.653135 8.25344C0.533241 6.90459 0.955192 5.69059 1.91899 4.61143C2.88278 3.53228 4.08407 2.92876 5.52284 2.80087L26.7724 0.91208C28.2112 0.784193 29.5001 1.16637 30.6391 2.05861C31.7781 2.95085 32.4076 4.0714 32.5275 5.42025Z" fill="#699BF7"/>
</g>
<defs>
<clipPath id="clip0_274_140">
<rect width="32" height="50" fill="white" transform="translate(0.210449 3.27307) rotate(-5.07946)"/>
</clipPath>
</defs>
</svg>
