<svg width="59" height="53" viewBox="0 0 59 53" fill="none" xmlns="http://www.w3.org/2000/svg">
<path d="M52.7424 3.0327C54.3893 3.13743 55.927 3.89502 57.0171 5.13882C58.1073 6.38261 58.6606 8.01072 58.5554 9.66498L56.1756 47.0894C56.0704 48.7437 55.3152 50.2886 54.0763 51.3842C52.8374 52.4799 51.2161 53.0366 49.5692 52.9319L6.10147 50.1677C4.45456 50.063 2.9169 49.3054 1.82674 48.0616C0.736584 46.8178 0.18324 45.1897 0.288437 43.5355L2.6683 6.11106C2.77349 4.4568 3.52861 2.91189 4.76754 1.81621C6.00647 0.720522 7.62771 0.163809 9.27462 0.268538L52.7424 3.0327ZM51.5524 21.7449L8.08469 18.9807L6.69644 40.8116C6.64796 41.5755 6.88028 42.3306 7.34932 42.9335C7.81836 43.5365 8.49151 43.9455 9.24108 44.0829L9.60296 44.1278L46.861 46.4971C47.6215 46.5453 48.3733 46.3116 48.9739 45.8401C49.5745 45.3686 49.982 44.6923 50.1193 43.9393L50.1642 43.5758L51.5524 21.7449ZM11.9828 6.70338C11.1594 6.65102 10.3487 6.92937 9.72928 7.47722C9.10981 8.02506 8.73225 8.79751 8.67966 9.62464C8.62706 10.4518 8.90373 11.2658 9.44881 11.8877C9.99389 12.5096 10.7627 12.8884 11.5862 12.9408C12.4096 12.9931 13.2203 12.7148 13.8397 12.1669C14.4592 11.6191 14.8367 10.8467 14.8893 10.0195C14.9419 9.19239 14.6653 8.37834 14.1202 7.75644C13.5751 7.13454 12.8063 6.75574 11.9828 6.70338ZM21.2973 7.2957C20.4739 7.24334 19.6633 7.52169 19.0438 8.06954C18.4243 8.61738 18.0468 9.38983 17.9942 10.217C17.9416 11.0441 18.2183 11.8581 18.7633 12.48C19.3084 13.1019 20.0772 13.4807 20.9007 13.5331C21.7241 13.5855 22.5348 13.3071 23.1542 12.7593C23.7737 12.2114 24.1513 11.439 24.2039 10.6118C24.2565 9.78471 23.9798 8.97066 23.4347 8.34876C22.8896 7.72686 22.1208 7.34807 21.2973 7.2957ZM30.6119 7.88802C29.7884 7.83566 28.9778 8.11401 28.3583 8.66186C27.7389 9.2097 27.3613 9.98215 27.3087 10.8093C27.2561 11.6364 27.5328 12.4505 28.0778 13.0724C28.6229 13.6943 29.3918 14.0731 30.2152 14.1254C31.0387 14.1778 31.8493 13.8994 32.4688 13.3516C33.0882 12.8037 33.4658 12.0313 33.5184 11.2042C33.571 10.377 33.2943 9.56298 32.7492 8.94108C32.2041 8.31918 31.4353 7.94039 30.6119 7.88802Z" fill="#0FA958"/>
</svg>
